<svg width="40" height="38" viewBox="0 0 40 38" fill="none" xmlns="http://www.w3.org/2000/svg">
<path fill-rule="evenodd" clip-rule="evenodd" d="M0.0808759 38C0.0363941 38 0 29.4505 0 19.001V0.00199983L0.575836 0.252579C0.892465 0.390367 3.44006 1.70206 6.23715 3.16753L11.3226 5.83191V19.4016V32.971L10.16 33.5052C7.63853 34.6637 0.157101 38 0.0808759 38ZM33.614 3.28452C36.3108 1.88184 38.8356 0.569152 39.2248 0.367169L39.9325 0L39.984 18.9324C40.0123 29.3451 40.002 37.8978 39.961 37.9386C39.8932 38.0056 31.9905 34.5089 29.6713 33.3858L28.7109 32.9206V19.3778V5.83471L33.614 3.28452ZM6.26788 5.65632L4.80201 5.00318C3.99588 4.64401 3.04053 4.22564 2.67901 4.07386L2.0219 3.79748V8.55888V13.3205L4.14489 13.7286L6.26788 14.1366V9.89657V5.65632ZM38.0117 13.3205V8.56168C38.0117 5.9443 37.9888 3.80788 37.9611 3.81368C37.9334 3.81968 36.9779 4.23424 35.8381 4.735L33.7657 5.64532V9.89097V14.1366L35.8887 13.7286L38.0117 13.3205ZM9.9073 7.48837L8.58922 6.84562C7.86437 6.49205 7.22747 6.20268 7.17389 6.20268C7.12031 6.20268 7.07664 8.03312 7.07664 10.2705V14.3384L8.23923 14.5956C8.87876 14.7372 9.51565 14.8961 9.65456 14.9487C9.85129 15.0235 9.9073 14.207 9.9073 11.2667V7.48837ZM12.1314 31.8005V19.0016V6.20268H20.0168H27.9022V19.0016V31.8005H20.0168H12.1314ZM32.9569 14.3384V10.2705C32.9569 8.03312 32.8886 6.20808 32.8053 6.21468C32.722 6.22128 32.0851 6.51045 31.39 6.85742L30.1263 7.48797V11.2664C30.1263 14.2068 30.1823 15.0235 30.379 14.9487C30.5181 14.8961 31.155 14.7372 31.7943 14.5956L32.9569 14.3384ZM6.26788 15.0351L5.25309 14.8198C4.69505 14.7014 3.7397 14.5466 3.1301 14.4758L2.0219 14.347V19.0788V23.8106L3.68996 23.6934C4.93936 23.6057 5.59047 23.6583 5.92699 23.3581C6.37001 22.963 6.26788 21.9567 6.26788 19.2144V15.0351ZM38.0117 23.8106V19.1062V14.402L37.3545 14.4252C36.9932 14.438 36.5155 14.4876 36.2931 14.5354C36.0706 14.5834 35.4109 14.7144 34.8272 14.8264L33.7657 15.0303V19.212C33.7657 21.9562 33.6635 22.963 34.1066 23.3582C34.4432 23.6583 35.0943 23.6057 36.3436 23.6934L38.0117 23.8106ZM9.9073 15.6531L9.14908 15.5327C8.73217 15.4667 8.09527 15.3539 7.73376 15.2823L7.07664 15.1519V19.3016V23.4512L7.70848 23.3262C8.05605 23.2574 8.69294 23.2012 9.12381 23.2012H9.9073V19.4272V15.6531ZM32.9569 23.4512V19.3266C32.9569 16.5068 33.0262 15.5464 32.6458 15.3102C32.3981 15.1564 31.9598 15.3095 31.1878 15.4563L30.1263 15.6581V19.4298V23.2012H30.9098C31.3406 23.2012 31.9775 23.2574 32.3251 23.3262L32.9569 23.4512ZM9.55346 31.4997C9.87252 31.3718 9.9073 30.9952 9.9073 27.6795V24.0012L9.04799 24.0312C8.57547 24.0476 7.93857 24.0986 7.63266 24.1444L7.07664 24.2278V28.3034V32.3789L8.13814 32.0103C8.72206 31.8075 9.35896 31.5777 9.55346 31.4997ZM32.9569 24.2536L32.1987 24.1296C31.7818 24.0614 31.1447 24.0046 30.7834 24.0034L30.1263 24.0012V27.6795C30.1263 30.9952 30.161 31.3718 30.4801 31.4997C30.6748 31.5777 31.3117 31.8075 31.8954 32.0103L32.9569 32.3789V28.3162V24.2536ZM6.16679 32.8642L6.22138 28.6328L6.27597 24.4011L5.41262 24.4311C4.4967 24.4629 3.749 24.5399 2.67901 24.7129L2.0219 24.8193V29.5233C2.0219 34.0741 2.03464 34.2233 2.41091 34.1051C2.62483 34.0379 3.55733 33.7314 4.48335 33.4238L6.16679 32.8642ZM38.0117 24.8445L37.5567 24.7363C37.3064 24.6769 36.3493 24.5653 35.4297 24.4885L33.7574 24.3487L33.8122 28.6066L33.8668 32.8642L35.5502 33.4238C36.4762 33.7314 37.4087 34.0379 37.6227 34.1051C37.9989 34.2233 38.0117 34.0743 38.0117 29.5359V24.8445ZM26.4016 7.89154H13.6016V29.99H26.4016V7.89154Z" fill="#7BA0FF"/>
</svg>
